<?xml version="1.0" encoding="utf-8"?>
<!-- Generator: Adobe Illustrator 16.0.4, SVG Export Plug-In . SVG Version: 6.00 Build 0)  -->
<!DOCTYPE svg PUBLIC "-//W3C//DTD SVG 1.1//EN" "http://www.w3.org/Graphics/SVG/1.1/DTD/svg11.dtd">
<svg version="1.1" id="Layer_1" xmlns="http://www.w3.org/2000/svg" xmlns:xlink="http://www.w3.org/1999/xlink" x="0px" y="0px"
	 width="81.763px" height="78.516px" viewBox="0 0 81.763 78.516" enable-background="new 0 0 81.763 78.516" xml:space="preserve">
<g>
	<path fill="#FFFFFF" d="M8.875,20.877h40.908c6.122,0,11.103,4.981,11.103,11.103s-4.981,11.104-11.103,11.104H27.648
		c-1.743,0-3.161,1.418-3.161,3.16c0,1.743,1.418,3.161,3.161,3.161h22.134c9.608,0,17.425-7.817,17.425-17.425
		c0-9.608-7.817-17.425-17.425-17.425H8.875c-1.743,0-3.161,1.418-3.161,3.162C5.714,19.459,7.132,20.877,8.875,20.877z"/>
	<path fill="#FFFFFF" d="M49.783,0H33.918c-1.743,0-3.161,1.418-3.161,3.161c0,1.743,1.418,3.161,3.161,3.161h15.865
		c14.148,0,25.658,11.51,25.658,25.659s-11.51,25.658-25.658,25.658H9.48c-1.743,0-3.161,1.418-3.161,3.161s1.417,3.161,3.161,3.161
		h40.302c17.634,0,31.98-14.347,31.98-31.98C81.763,14.346,67.417,0,49.783,0z"/>
	<path fill="#FFFFFF" d="M31.456,31.98c0-1.743-1.418-3.161-3.161-3.161h-7.704c-1.743,0-3.161,1.418-3.161,3.161
		c0,1.751,1.398,3.161,2.555,3.161h7.703C29.907,35.141,31.456,33.842,31.456,31.98z"/>
	<path fill="#FFFFFF" d="M21.45,72.194H3.161C1.418,72.194,0,73.612,0,75.355c0,1.742,1.418,3.16,3.161,3.16H21.45
		c1.743,0,3.161-1.418,3.161-3.16C24.61,73.612,23.192,72.194,21.45,72.194z"/>
</g>
</svg>
